<svg width="41" height="41" viewBox="0 0 41 41" fill="none" xmlns="http://www.w3.org/2000/svg">
<path d="M20.4997 6.83398C18.6152 6.83398 17.083 8.3662 17.083 10.2507C17.083 12.1351 18.6152 13.6673 20.4997 13.6673C22.3841 13.6673 23.9163 12.1351 23.9163 10.2507C23.9163 8.3662 22.3841 6.83398 20.4997 6.83398ZM20.4997 11.9594C19.5579 11.9594 18.7918 11.1925 18.7918 10.2515C18.7918 9.31051 19.5587 8.54357 20.4997 8.54357C21.4407 8.54357 22.2076 9.31051 22.2076 10.2515C22.2076 11.1925 21.4415 11.9594 20.4997 11.9594Z" fill="#0C539C"/>
<path d="M23.0622 15.375H16.2289C15.7567 15.375 15.3745 15.7572 15.3745 16.2294V19.646C15.3745 20.1182 15.7567 20.5004 16.2289 20.5004H17.0833V33.3127C17.0833 33.7849 17.4655 34.1671 17.9376 34.1671H23.0631C23.5352 34.1671 23.9174 33.7849 23.9174 33.3127V16.2285C23.9166 15.7564 23.5344 15.375 23.0622 15.375ZM22.2087 32.4583H18.792V19.6452C18.792 19.1731 18.4098 18.7908 17.9376 18.7908H17.0833V17.0829H22.2087V32.4583Z" fill="#0C539C"/>
<path d="M20.5 0C9.1966 0 0 9.1966 0 20.5C0 31.8034 9.1966 41 20.5 41C31.8034 41 41 31.8034 41 20.5C41 9.1966 31.8034 0 20.5 0ZM20.5 39.2921C10.1384 39.2921 1.70792 30.8624 1.70792 20.5C1.70792 10.1376 10.1384 1.70792 20.5 1.70792C30.8616 1.70792 39.2921 10.1376 39.2921 20.5C39.2921 30.8624 30.8624 39.2921 20.5 39.2921Z" fill="#0C539C"/>
</svg>
