<svg width="41" height="41" viewBox="0 0 41 41" fill="none" xmlns="http://www.w3.org/2000/svg">
<path d="M40.9314 25.0007L40.9374 24.999L34.2058 10.3117L35.8381 9.49939L35.2273 8.27623L33.636 9.06889L33.4208 8.5991C33.2636 8.25573 32.8579 8.1054 32.5145 8.26256C32.3659 8.33089 32.2463 8.45048 32.178 8.5991L31.9858 9.01849C30.8276 8.48037 29.566 8.20106 28.289 8.20021H22.5499V6.83355H23.9165V5.46689H22.7421L23.2332 3.50147C23.6108 1.99216 22.6925 0.46236 21.1832 0.0848207C19.6739 -0.292719 18.1441 0.625505 17.7666 2.13481C17.6547 2.58324 17.6547 3.05218 17.7666 3.50061L18.2577 5.46689H17.0833V6.83355H18.4499V8.20021H12.7134C11.4347 8.20106 10.1722 8.48123 9.01313 9.0202L8.82095 8.60081C8.66378 8.25744 8.25806 8.1071 7.91468 8.26427C7.76606 8.3326 7.64648 8.45218 7.57814 8.60081L7.3629 9.0706L5.77159 8.27452L5.16087 9.49939L6.79317 10.3151L0.0623784 24.999C0.0205245 25.0878 -0.00082951 25.1852 2.46514e-05 25.2834C0.00258714 27.9236 2.14312 30.0633 4.78333 30.0667H11.6166C14.2568 30.0633 16.3965 27.9236 16.3999 25.2834C16.3982 25.1852 16.3752 25.0887 16.3316 25.0007L9.58201 10.2579C10.5634 9.80261 11.632 9.56686 12.7134 9.56686H18.4499V34.5673L16.1172 36.9H13.6666C11.7806 36.9026 10.2525 38.4307 10.25 40.3167C10.25 40.6942 10.5557 41 10.9333 41H30.0665C30.444 41 30.7498 40.6942 30.7498 40.3167C30.7473 38.4307 29.2192 36.9026 27.3332 36.9H24.8826L22.5499 34.5673V9.56686H28.2898C29.3712 9.56686 30.4406 9.80261 31.4212 10.2579L24.6614 24.999C24.6195 25.0878 24.599 25.1852 24.599 25.2843C24.6024 27.9245 26.7421 30.0642 29.3823 30.0676H36.2156C38.8558 30.0642 40.9963 27.9245 40.9989 25.2843C40.9981 25.1861 40.975 25.0887 40.9314 25.0007ZM11.6166 28.7001H4.78333C3.16042 28.6984 1.76131 27.5564 1.43502 25.9668H14.9649C14.6386 27.5572 13.2395 28.6984 11.6166 28.7001ZM14.6523 24.6001H1.74764L8.02487 10.9053C8.13933 10.9361 8.25976 10.9361 8.37508 10.9053L14.6523 24.6001ZM19.357 1.92468C19.8892 1.29346 20.8322 1.21317 21.4642 1.74531C21.5292 1.79998 21.589 1.85977 21.6436 1.92468C21.9204 2.2766 22.0177 2.73614 21.9084 3.17005L21.3327 5.46689H19.6671L19.0922 3.1692C18.9829 2.73614 19.0803 2.2766 19.357 1.92468ZM19.8166 8.20021V6.83355H21.1832V8.20021H19.8166ZM21.1832 9.56686V34.1667H19.8166V9.56686H21.1832ZM27.3332 38.2667C28.2019 38.2675 28.9757 38.8151 29.2662 39.6333H11.7336C12.0241 38.8151 12.7979 38.2675 13.6666 38.2667H27.3332ZM22.9505 36.9H18.0493L19.416 35.5334H21.5838L22.9505 36.9ZM32.6239 10.9079C32.7366 10.9472 32.8605 10.9421 32.9698 10.8934L39.2522 24.6001H26.3475L32.6239 10.9079ZM36.2165 28.7001H29.3832C27.7603 28.6984 26.362 27.5564 26.0349 25.9668H39.5648C39.2385 27.5572 37.8394 28.6984 36.2165 28.7001Z" fill="#0C539C"/>
</svg>
