<svg width="29" height="41" viewBox="0 0 29 41" fill="none" xmlns="http://www.w3.org/2000/svg">
<path d="M26.8039 0H1.70803C0.764708 0 0 0.764708 0 1.70803V34.73C0 35.6734 0.764708 36.4381 1.70803 36.4381H4.36418V40.1452C4.36418 40.6173 4.74614 40.9992 5.2182 40.9992C5.46778 40.9992 5.70541 40.89 5.86728 40.7002L7.74756 38.5145L9.62703 40.701C9.93403 41.0598 10.4731 41.1013 10.8311 40.7951C11.0209 40.6324 11.1301 40.3956 11.1301 40.146V36.4389H26.8039C27.7472 36.4389 28.5119 35.6742 28.5119 34.7308V1.70803C28.5119 0.764708 27.7472 0 26.8039 0ZM9.4213 37.8136L8.39664 36.6175C8.08964 36.2587 7.5506 36.2172 7.19256 36.5234C7.15907 36.5521 7.12718 36.584 7.09847 36.6175L6.07381 37.8136V34.5674C7.15269 34.974 8.34322 34.974 9.4221 34.5674V37.8136H9.4213ZM7.74756 33.1592H7.71327C5.98211 33.1592 4.57868 31.7557 4.57868 30.0246C4.57868 28.2934 5.98211 26.89 7.71327 26.89C9.44443 26.89 10.8479 28.2934 10.8479 30.0246C10.8479 31.7422 9.46516 33.14 7.74756 33.1592ZM26.7608 34.7221H11.1301V33.4837C13.0447 31.6154 13.0822 28.5494 11.2139 26.6348C9.34555 24.7203 6.27954 24.6828 4.36498 26.5511C2.45042 28.4194 2.41294 31.4854 4.28125 33.4C4.30916 33.4279 4.33627 33.4558 4.36498 33.4837V34.7221H1.70803V1.70803H26.8031L26.7608 34.7221Z" fill="#0C539C"/>
<path d="M6.834 8.46389H21.6792C22.1513 8.46389 22.5332 8.08114 22.5332 7.60988C22.5332 7.13861 22.1513 6.75586 21.6792 6.75586H6.834C6.36194 6.75586 5.97998 7.13861 5.97998 7.60988C5.97998 8.08114 6.36194 8.46389 6.834 8.46389Z" fill="#0C539C"/>
<path d="M6.834 13.376H21.6792C22.1513 13.376 22.5332 12.9932 22.5332 12.522C22.5332 12.0507 22.1513 11.668 21.6792 11.668H6.834C6.36194 11.668 5.97998 12.0507 5.97998 12.522C5.97998 12.9932 6.36194 13.376 6.834 13.376Z" fill="#0C539C"/>
<path d="M6.834 18.2881H21.6792C22.1513 18.2881 22.5332 17.9054 22.5332 17.4341C22.5332 16.962 22.1513 16.5801 21.6792 16.5801H6.834C6.36194 16.5801 5.97998 16.9628 5.97998 17.4341C5.97918 17.9062 6.36194 18.2881 6.834 18.2881Z" fill="#0C539C"/>
<path d="M6.834 23.1983H21.6792C22.1513 23.1983 22.5332 22.8155 22.5332 22.3443C22.5332 21.8722 22.1513 21.4902 21.6792 21.4902H6.834C6.36194 21.4902 5.97998 21.873 5.97998 22.3443C5.97918 22.8163 6.36194 23.1983 6.834 23.1983Z" fill="#0C539C"/>
<path d="M21.6789 26.4014H14.897C14.4249 26.4014 14.043 26.7841 14.043 27.2554C14.043 27.7274 14.4257 28.1094 14.897 28.1094H21.6789C22.1509 28.1094 22.5329 27.7266 22.5329 27.2554C22.5329 26.7841 22.1502 26.4014 21.6789 26.4014Z" fill="#0C539C"/>
</svg>
