<svg width="45" height="41" viewBox="0 0 45 41" fill="none" xmlns="http://www.w3.org/2000/svg">
<path d="M22.3633 4.65918C20.5625 4.65918 19.1021 6.11961 19.1021 7.92043C19.1021 9.72125 20.5625 11.1817 22.3633 11.1817C24.1641 11.1817 25.6246 9.72125 25.6246 7.92043C25.6246 6.11872 24.165 4.65918 22.3633 4.65918ZM22.3633 9.31849C21.5925 9.31849 20.9652 8.69119 20.9652 7.92043C20.9652 7.14967 21.5925 6.52237 22.3633 6.52237C23.1341 6.52237 23.7614 7.14967 23.7614 7.92043C23.7614 8.69119 23.1341 9.31849 22.3633 9.31849Z" fill="#0C539C"/>
<path d="M44.7273 14.9091V11.1818L22.3636 0L0 11.1818V14.9091H3.72727V33.5455H0V41H1.36242H5.59135H44.7282V33.5455H41.0009V14.9091H44.7273ZM42.8641 35.4095V39.1368H1.86408V35.4095C23.9809 35.4095 32.9155 35.4095 33.9375 35.4095C34.1068 35.4095 34.1647 35.4095 34.163 35.4095C34.7635 35.4095 36.7996 35.4095 42.8641 35.4095ZM5.59135 33.5455V14.9091H9.31863V33.5455H5.59135ZM11.1818 33.5455V14.9091H18.6364V33.5455H11.1818ZM20.5004 33.5455V14.9091H24.2277V33.5455H20.5004ZM26.0909 33.5455V14.9091H33.5455V33.5455H26.0909ZM35.4095 33.5455V14.9091H39.1368V33.5455H35.4095ZM1.86408 13.0459V12.3339L22.3636 2.08328L42.8641 12.3331V13.045C38.2689 13.0459 6.29885 13.0459 1.86408 13.0459Z" fill="#0C539C"/>
</svg>
