<svg width="55" height="41" viewBox="0 0 55 41" fill="none" xmlns="http://www.w3.org/2000/svg">
<path d="M54.2265 13.2635L27.9403 0.120428C27.6181 -0.0401426 27.2393 -0.0401426 26.9182 0.120428L0.631989 13.2635C0.244973 13.457 0 13.8533 0 14.2856C0 14.719 0.244973 15.1142 0.631989 15.3077L9.33367 19.6586V28.3921C9.33367 33.7857 17.2819 38.0109 27.4287 38.0109C37.5755 38.0109 45.5238 33.7857 45.5238 28.3921V19.6586L48.5612 18.1403V26.4756C47.1614 26.9532 46.1516 28.2799 46.1516 29.8393C46.1516 31.2536 46.9823 32.4764 48.1804 33.0487L45.7523 39.453C45.6195 39.804 45.6668 40.1982 45.8809 40.507C46.095 40.8158 46.446 41 46.8217 41H52.5899C52.9656 41 53.3166 40.8158 53.5307 40.507C53.7437 40.1982 53.7921 39.804 53.6593 39.453L51.2312 33.0476C52.4293 32.4754 53.26 31.2526 53.26 29.8383C53.26 28.2789 52.2492 26.9511 50.8493 26.4746V16.9968L54.2285 15.3077C54.6155 15.1142 54.8605 14.7179 54.8605 14.2856C54.8574 13.8533 54.6135 13.457 54.2265 13.2635ZM43.2387 28.3932C43.2387 30.1759 41.6587 31.9875 38.9054 33.3647C35.8587 34.888 31.7837 35.7269 27.4297 35.7269C23.0758 35.7269 18.9998 34.888 15.9541 33.3647C13.1997 31.9875 11.6208 30.1759 11.6208 28.3932V20.8021L26.9192 28.4518C27.0798 28.5321 27.2548 28.5723 27.4308 28.5723C27.6068 28.5723 27.7807 28.5321 27.9423 28.4518L43.2408 20.8021V28.3932H43.2387ZM48.4758 38.716L49.7048 35.4747L50.9337 38.716H48.4758ZM50.9718 29.8393C50.9718 30.5382 50.4037 31.1064 49.7048 31.1064C49.0059 31.1064 48.4377 30.5382 48.4377 29.8393C48.4377 29.1425 49.0038 28.5754 49.6996 28.5723C49.7017 28.5723 49.7027 28.5723 49.7048 28.5723C49.7068 28.5723 49.7089 28.5723 49.7099 28.5723C50.4067 28.5754 50.9718 29.1425 50.9718 29.8393ZM49.4721 15.1296L27.5316 13.1482C26.9027 13.0906 26.3469 13.5548 26.2903 14.1837C26.2337 14.8126 26.6969 15.3684 27.3258 15.425L45.5845 17.074L27.4287 26.1524L3.69827 14.2856L27.4287 2.42091L51.1592 14.2866L49.4721 15.1296Z" fill="#0C539C"/>
</svg>
